<?xml version="1.0" encoding="UTF-8"?>
<svg version="1.1" xmlns="http://www.w3.org/2000/svg" width="512" height="512">
<path d="M0 0 C1.83069125 -0.00599089 3.66137998 -0.01279773 5.49206543 -0.02035522 C10.44440465 -0.03795946 15.39667469 -0.04270808 20.34904218 -0.0439868 C23.44591246 -0.04541144 26.54276532 -0.04968685 29.63963127 -0.05498123 C40.45100898 -0.07345887 51.26233749 -0.08165417 62.07373047 -0.08007812 C72.1411723 -0.07887543 82.20840021 -0.10000867 92.27578789 -0.13156545 C100.9316593 -0.15772818 109.58746079 -0.16844551 118.24337143 -0.16716731 C123.4079304 -0.16665793 128.57229885 -0.17232857 133.73681831 -0.19352341 C138.59197127 -0.21290718 143.44675183 -0.21302928 148.30191803 -0.19849014 C150.0804467 -0.19640154 151.85899871 -0.20110599 153.63748741 -0.21321106 C156.07159046 -0.22870208 158.5044153 -0.21933125 160.93849182 -0.20394897 C161.9857401 -0.21937966 161.9857401 -0.21937966 163.05414492 -0.23512208 C168.37555931 -0.1611629 172.57624351 1.33370527 176.93920898 4.29052734 C181.10835555 9.52868585 182.48648323 13.61378156 181.93920898 20.29052734 C180.12928287 25.56292082 177.70468517 29.23573492 172.93920898 32.29052734 C169.42108284 33.46323606 166.25534225 33.43408828 162.59550476 33.42855835 C161.84171769 33.43137963 161.08793063 33.43420091 160.31130153 33.43710768 C157.77799928 33.44546034 155.24474069 33.4467925 152.71142578 33.44824219 C150.89808021 33.45290991 149.0847358 33.45805341 147.27139282 33.46363831 C143.36231788 33.47492414 139.45325059 33.48335597 135.54416466 33.48975754 C129.36313912 33.50043007 123.18216846 33.52067281 117.00117493 33.5428772 C99.42333488 33.60482695 81.84549796 33.65882253 64.26757812 33.69189453 C54.56260755 33.71023425 44.85772877 33.73916168 35.15282565 33.77989924 C30.01624013 33.80097933 24.87977033 33.81642795 19.74313927 33.81870651 C14.91106871 33.82085249 10.07923915 33.83671675 5.24724197 33.86309624 C3.4743476 33.87029248 1.70142403 33.87238862 -0.0714817 33.86899376 C-2.49331831 33.86509725 -4.91438589 33.87955888 -7.33613586 33.89852905 C-8.03643789 33.89299936 -8.73673992 33.88746966 -9.45826322 33.8817724 C-14.05933728 33.94391335 -17.07432292 35.06434691 -21.06079102 37.29052734 C-21.72079102 37.29052734 -22.38079102 37.29052734 -23.06079102 37.29052734 C-26.96432048 43.98229213 -27.35513499 51.20168663 -27.32148743 58.73387146 C-27.32531297 59.65315605 -27.32913852 60.57244063 -27.33307999 61.51958233 C-27.34335385 64.58318233 -27.33942854 67.64659295 -27.33544922 70.71020508 C-27.33979877 72.91350477 -27.34498273 75.11680294 -27.35093689 77.32009888 C-27.36431121 83.29319653 -27.36490734 89.26623084 -27.36237359 95.23934054 C-27.36130293 100.22943793 -27.36618963 105.21952255 -27.37097901 110.2096172 C-27.38270219 122.65582778 -27.38185218 135.10201018 -27.3754222 147.54822177 C-27.37025302 158.34400156 -27.38151067 169.13969111 -27.40052042 179.93545305 C-27.41991596 191.03586786 -27.42786071 202.13624601 -27.42439717 213.23667866 C-27.42258515 219.46261659 -27.42521258 225.68847185 -27.43911171 231.91439629 C-27.45169368 237.76918545 -27.44974228 243.62379406 -27.43670082 249.47858047 C-27.43433641 251.6243464 -27.43706486 253.77012505 -27.44532394 255.91587639 C-27.45580425 258.8508594 -27.44768024 261.78523796 -27.43501282 264.72019958 C-27.4423871 265.56399042 -27.44976139 266.40778126 -27.45735914 267.27714151 C-27.40247172 273.34545211 -26.77892858 280.1615957 -22.64428407 284.921112 C-18.44624121 288.55160743 -15.13085688 289.41472721 -9.7320528 289.42474842 C-8.61981006 289.42920626 -7.50756732 289.43366411 -6.36162025 289.43825704 C-5.13460322 289.43807268 -3.9075862 289.43788831 -2.64338684 289.43769836 C-0.69402891 289.4432134 -0.69402891 289.4432134 1.29470998 289.44883984 C4.90959061 289.45886438 8.52445463 289.46257736 12.1393472 289.46522915 C16.03519658 289.46913086 19.9310328 289.4787093 23.82687378 289.48744202 C33.23916253 289.50721024 42.65145236 289.51727311 52.06375667 289.52616981 C56.49530274 289.53055214 60.9268476 289.53591909 65.35839272 289.54115868 C80.08839641 289.55817135 94.81839936 289.57266575 109.54841137 289.57990742 C113.37146696 289.58181734 117.19452255 289.58373767 121.01757812 289.58569336 C122.44289481 289.58641897 122.44289481 289.58641897 123.89700577 289.58715924 C139.29148048 289.5954604 154.68587751 289.6207986 170.08031829 289.65327404 C185.88254688 289.68633817 201.68473597 289.70435559 217.48699933 289.70755166 C226.36057019 289.70971736 235.23402777 289.71847478 244.10756493 289.74401283 C251.66438133 289.76571101 259.22105694 289.77377462 266.77790096 289.76404605 C270.63310525 289.75949875 274.488019 289.76141225 278.34318352 289.7808075 C282.52462267 289.8016624 286.70541641 289.7914623 290.8868866 289.77827454 C292.10275001 289.78924378 293.31861343 289.80021303 294.57132119 289.81151468 C301.49141781 289.75874512 306.07418721 289.06252192 311.93920898 285.29052734 C315.1015078 281.21014177 316.06140467 277.26241534 316.07051086 272.17411804 C316.07451904 271.36256256 316.07852722 270.55100708 316.08265686 269.71485901 C316.08212814 268.83321579 316.08159943 267.95157257 316.08105469 267.04321289 C316.08452911 266.10777649 316.08800354 265.17234009 316.09158325 264.20855713 C316.09893119 262.1782306 316.1042817 260.14789608 316.10787392 258.11755943 C316.11504704 254.90177797 316.13071997 251.6861484 316.1492157 248.47041321 C316.2016463 239.32754594 316.2496614 230.18476245 316.26513672 221.04174805 C316.27522544 215.44784334 316.30457172 209.85432184 316.34645653 204.26056862 C316.35875736 202.13120232 316.36388947 200.00178187 316.3616581 197.87238121 C316.35930169 194.88984741 316.3814976 191.90841076 316.40917969 188.92602539 C316.40257828 188.05045486 316.39597687 187.17488434 316.38917542 186.27278137 C316.47749852 180.46364652 317.5616092 177.0551977 320.93920898 172.29052734 C325.71100171 168.56852902 329.47479525 167.63257535 335.50952148 167.90771484 C340.80815508 168.74254779 343.96151332 171.05554335 347.31420898 175.29052734 C349.35447264 179.05716795 350.06246039 182.04445226 350.07292175 186.29736328 C350.07718674 187.08486465 350.08145172 187.87236603 350.08584595 188.68373108 C350.08539276 189.5388176 350.08493958 190.39390411 350.08447266 191.27490234 C350.08951057 192.63674904 350.08951057 192.63674904 350.09465027 194.02610779 C350.10415594 197.03092821 350.10610367 200.03569281 350.10717773 203.04052734 C350.11039228 205.13598656 350.1137565 207.23144555 350.11726379 209.3269043 C350.12325531 213.72510294 350.12510384 218.12328194 350.12451172 222.52148438 C350.12441048 228.13198009 350.13802242 233.74234815 350.15528393 239.35281372 C350.16645892 243.68536954 350.16842919 248.01789512 350.16790199 252.35046387 C350.16907538 254.4171187 350.1734608 256.48377449 350.18123436 258.55041504 C350.24558984 277.43884921 349.69657846 295.17393913 335.80249023 309.62255859 C326.15593658 318.2579431 314.13530113 323.40542434 301.15879631 323.42195511 C300.02214684 323.42579625 298.88549738 323.4296374 297.71440399 323.43359494 C295.85606042 323.43229522 295.85606042 323.43229522 293.96017456 323.43096924 C292.62298755 323.43355488 291.28580132 323.43656859 289.94861615 323.43997264 C286.27982422 323.44802258 282.61105187 323.44983109 278.94225216 323.45057011 C274.98298559 323.45242417 271.0237291 323.4599733 267.06446838 323.46670532 C258.4093367 323.48027511 249.75420966 323.48631131 241.09906912 323.49071598 C235.69206361 323.4934808 230.28505988 323.4977186 224.87805557 323.50222015 C209.90002238 323.51441126 194.92199061 323.52471075 179.94395256 323.52809525 C178.98570837 323.52831481 178.02746419 323.52853438 177.0401823 323.5287606 C176.07967832 323.52897887 175.11917433 323.52919715 174.12956417 323.52942204 C172.18329994 323.52986551 170.23703571 323.53031207 168.29077148 323.53076172 C167.32536242 323.53098315 166.35995335 323.53120458 165.36528946 323.53143272 C149.72799539 323.53537935 134.09074795 323.55282996 118.45347188 323.57612124 C102.38896585 323.59985521 86.32448319 323.61229803 70.25995934 323.61346316 C61.24436472 323.61437879 52.22883087 323.62010288 43.21325302 323.63828278 C35.53513441 323.6537114 27.85709535 323.65878797 20.17896418 323.65054467 C16.26456083 323.64664788 12.35031755 323.64752004 8.43593407 323.66160202 C4.84563192 323.67439948 1.25560915 323.67309271 -2.33469294 323.66101131 C-4.23431509 323.65814891 -6.13394233 323.66994567 -8.03352559 323.68243337 C-22.35189956 323.60054828 -35.69967043 319.930624 -46.43969727 310.04052734 C-53.93507037 301.94913662 -60.16216582 291.28914661 -60.1978054 279.99277592 C-60.20287995 279.1359135 -60.20795449 278.27905108 -60.21318281 277.39622313 C-60.21368056 276.45956877 -60.21417832 275.52291441 -60.21469116 274.55787659 C-60.21907342 273.55907736 -60.22345567 272.56027814 -60.22797072 271.53121227 C-60.24135694 268.17437073 -60.24753727 264.81755545 -60.25366211 261.46069336 C-60.26156336 259.05758038 -60.26983233 256.65446858 -60.27844238 254.25135803 C-60.30240028 247.03154836 -60.31759219 239.81173695 -60.33050245 232.59190145 C-60.33421652 230.55102305 -60.3381896 228.51014533 -60.34225512 226.46926761 C-60.36749832 213.78362154 -60.38954183 201.09797433 -60.40198326 188.41230869 C-60.40491276 185.47498635 -60.40787444 182.53766405 -60.41088867 179.6003418 C-60.41163472 178.8703226 -60.41238077 178.14030341 -60.41314943 177.38816243 C-60.42578867 165.57631487 -60.45899329 153.76461833 -60.5006905 141.95284129 C-60.54319294 129.81292768 -60.56668802 117.67309119 -60.57190382 105.53310341 C-60.575309 98.72228385 -60.58695756 91.91170011 -60.62000656 85.10095406 C-60.65014649 78.68802091 -60.65637748 72.2754977 -60.6446228 65.86250877 C-60.64440255 63.51522924 -60.65266707 61.16793035 -60.67027664 58.82071686 C-60.79507887 41.22017161 -59.22319517 28.01446983 -47.06079102 14.29052734 C-33.65486662 1.30276939 -17.67209833 -0.01155045 0 0 Z " fill="#6520BA" transform="translate(76.060791015625,129.70947265625)"/>
<path d="M0 0 C3.68344821 2.59744677 5.64321188 4.5417454 7.25 8.75 C7.65992188 9.79671875 8.06984375 10.8434375 8.4921875 11.921875 C9.70642203 15.17446987 10.88615038 18.43948466 12.0703125 21.703125 C20.84317815 45.76427699 31.65504013 64.51544152 55 77 C58.89981157 78.69491939 62.86851416 80.14128574 66.875 81.5625 C68.99392123 82.33866637 71.11241644 83.11599684 73.23046875 83.89453125 C74.729729 84.44101318 74.729729 84.44101318 76.25927734 84.99853516 C94.15428926 91.53740376 94.15428926 91.53740376 99 101 C99.80166143 106.77051787 99.84441712 112.18125543 97.375 117.5 C90.60252452 124.62892156 83.60209489 127.25732056 74.4375 130.375 C51.21795285 138.29814864 31.36442444 149.85277509 20.04882812 172.69433594 C17.00308189 179.38987304 14.56354715 186.34763908 12.078125 193.265625 C11.38650468 195.17747728 10.69382133 197.08894538 10 199 C9.66693848 199.9293335 9.33387695 200.85866699 8.99072266 201.81616211 C7.25679394 206.442657 5.89235753 209.95401233 1.875 213.0625 C1.19179688 213.61035156 0.50859375 214.15820312 -0.1953125 214.72265625 C-5.22512476 218.28271818 -11.07418305 217.66069453 -17 217 C-21.99577522 215.40105719 -24.92083724 212.8407664 -27.56640625 208.328125 C-29.22999216 204.61112105 -30.64534999 200.83698046 -32 197 C-38.992105 176.97886375 -38.992105 176.97886375 -50 159 C-50.64582031 158.15566406 -51.29164063 157.31132812 -51.95703125 156.44140625 C-64.51834448 141.27061451 -83.16631412 134.2700493 -101.30712891 128.23266602 C-114.32110907 123.80013099 -114.32110907 123.80013099 -118.55859375 117.7890625 C-121.10271579 111.52486867 -121.9380923 106.53945458 -119.9375 99.9375 C-117.44006163 94.2315622 -113.42828939 91.0700018 -107.8269043 88.60180664 C-104.02998216 87.1864527 -100.2157998 85.85264375 -96.375 84.5625 C-74.30323019 77.0871097 -54.46347507 66.27022414 -43 45 C-39.54100553 37.93953531 -36.58484662 30.75063711 -33.9921875 23.328125 C-33.64986084 22.35270752 -33.30753418 21.37729004 -32.95483398 20.37231445 C-32.29270342 18.4621941 -31.64554796 16.54679494 -31.01586914 14.62573242 C-28.82598282 8.25930047 -26.11361111 2.26184227 -19.97216797 -1.11499023 C-12.84514781 -4.18465668 -6.86253378 -3.55835085 0 0 Z M-11 56 C-11.47308594 56.88300781 -11.94617188 57.76601562 -12.43359375 58.67578125 C-24.29648317 80.38791066 -40.66631325 94.94023549 -62 107 C-58.84354455 109.48277551 -55.52870894 111.47768774 -52.0625 113.5 C-37.0608022 122.54803255 -25.32825228 134.53429214 -16.3605957 149.55541992 C-15.96573975 150.21646729 -15.57088379 150.87751465 -15.1640625 151.55859375 C-14.81811035 152.14954834 -14.4721582 152.74050293 -14.11572266 153.34936523 C-12.91307511 155.12859939 -11.56055332 156.53073486 -10 158 C-9.45472656 157.04480469 -8.90945313 156.08960938 -8.34765625 155.10546875 C-3.52995842 146.79321322 1.55097049 139.17186294 8 132 C8.68449219 131.23300781 9.36898437 130.46601563 10.07421875 129.67578125 C18.52067663 120.72971773 29.02691776 113.51557044 40 108 C37.78573703 105.48736117 35.26387475 103.83544249 32.41918945 102.09667969 C13.29844838 90.4093251 0.30158973 75.81466272 -10 56 C-10.33 56 -10.66 56 -11 56 Z " fill="#F98A16" transform="translate(397,62)"/>
<path d="M0 0 C0.66016113 0.45971191 1.32032227 0.91942383 2.00048828 1.39306641 C5.55462622 3.86861462 9.09282156 6.36506695 12.6171875 8.8828125 C15.56360921 10.98664477 18.52695545 13.062447 21.5078125 15.1171875 C37.61583465 26.24707131 50.23093496 36.32166584 54.33984375 56.2890625 C56.65977463 69.33009405 53.42720437 82.48768742 46.07421875 93.47265625 C40.83745552 99.85342049 35.06678142 104.60581606 28.1875 109.125 C26.49857203 110.25568241 24.81110794 111.38855407 23.125 112.5234375 C22.27292969 113.09674805 21.42085938 113.67005859 20.54296875 114.26074219 C16.52919444 117.00595419 12.61103745 119.87804509 8.6875 122.75 C-13.52451252 138.8901499 -13.52451252 138.8901499 -23 141 C-23.7734375 141.17917969 -24.546875 141.35835937 -25.34375 141.54296875 C-37.52006633 143.63801141 -50.45734296 141.87493165 -60.9375 135.125 C-62.30760397 134.1043865 -63.66304612 133.06366872 -65 132 C-65.61230469 131.56042969 -66.22460938 131.12085938 -66.85546875 130.66796875 C-75.68222122 123.90663739 -80.47515343 113.59940606 -83 103 C-83.5601921 97.12949032 -83.56500972 91.29896718 -83.53125 85.40625 C-83.53395235 83.72578711 -83.53784091 82.04532577 -83.54284668 80.36486816 C-83.54870687 76.8617447 -83.54029236 73.35903228 -83.52148438 69.85595703 C-83.49869664 65.3978019 -83.51183862 60.94061045 -83.53577423 56.48249054 C-83.5503272 53.0180148 -83.54558311 49.55376216 -83.53526306 46.08927917 C-83.53262191 44.44687278 -83.53577197 42.80444517 -83.54518127 41.1620636 C-83.61462139 25.6405498 -80.64300328 12.5904094 -69.96875 0.74609375 C-48.9309468 -19.33891039 -22.10544056 -15.5666501 0 0 Z M-47 25 C-49.59726197 29.40010411 -50.38027606 32.63413434 -50.40405273 37.72045898 C-50.41673691 39.03880234 -50.42942108 40.35714569 -50.44248962 41.71543884 C-50.44043793 43.14232542 -50.43744969 44.56921091 -50.43359375 45.99609375 C-50.43815978 47.47290791 -50.4434666 48.94971995 -50.44947815 50.42652893 C-50.45839249 53.51564182 -50.45600556 56.60449596 -50.44604492 59.69360352 C-50.43455858 63.63900925 -50.45476905 67.58351949 -50.48396206 71.52880764 C-50.50236859 74.57702748 -50.50202281 77.62503447 -50.49632454 80.67329597 C-50.49617186 82.12726154 -50.50217193 83.58124202 -50.51461601 85.03515434 C-50.70266653 95.70698387 -50.70266653 95.70698387 -46 105 C-42.6306303 107.77191445 -38.87004554 108.83888046 -34.625 109.625 C-24.22622036 107.83210696 -14.73420053 98.66779152 -6.28613281 92.62744141 C-3.97718354 90.98375752 -1.65847639 89.35488378 0.6640625 87.73046875 C1.42195068 87.19953613 2.17983887 86.66860352 2.96069336 86.12158203 C4.40302631 85.11174339 5.84647895 84.10350132 7.29125977 83.09716797 C16.72440575 76.7629621 16.72440575 76.7629621 22 67 C22.26993953 61.19630008 20.59385053 57.59532161 17 53 C14.40671637 50.7567569 11.63383731 48.81961333 8.8125 46.875 C8.02166016 46.31731934 7.23082031 45.75963867 6.41601562 45.18505859 C4.76827286 44.02450586 3.11735013 42.86845571 1.46337891 41.71679688 C-0.90363069 40.06716244 -3.26026834 38.40389609 -5.61328125 36.734375 C-9.12247476 34.24501311 -12.64002588 31.76788142 -16.16113281 29.29541016 C-17.83863725 28.11367376 -19.50952669 26.92256141 -21.1796875 25.73046875 C-22.06914062 25.09753906 -22.95859375 24.46460938 -23.875 23.8125 C-24.61492187 23.28269531 -25.35484375 22.75289062 -26.1171875 22.20703125 C-33.21814249 17.65475927 -41.17419435 19.44546246 -47 25 Z " fill="#6520BA" transform="translate(240,227)"/>
</svg>
